HIERARCHY
ROOT joint_Root
{
	OFFSET 0.0 0.0 0.0
	CHANNELS 6 Xposition Yposition Zposition Zrotation Xrotation Yrotation 
	JOINT Hips
	{
		OFFSET 4.5925 91.4895 -427.239
		CHANNELS 6 Xposition Yposition Zposition Zrotation Xrotation Yrotation 
		JOINT Spine
		{
			OFFSET 15.7357 0.0 0.0
			CHANNELS 6 Xposition Yposition Zposition Zrotation Xrotation Yrotation 
			JOINT Chest
			{
				OFFSET 8.98455 -0.406207 0.0
				CHANNELS 6 Xposition Yposition Zposition Zrotation Xrotation Yrotation 
				JOINT Neck
				{
					OFFSET 16.3773 0.0 0.0
					CHANNELS 6 Xposition Yposition Zposition Zrotation Xrotation Yrotation 
					JOINT Head
					{
						OFFSET 6.45672 0.0 0.0
						CHANNELS 6 Xposition Yposition Zposition Zrotation Xrotation Yrotation 
						End Site
						{
							OFFSET 0.0 0.0 0.0
						}
					}
				}
				JOINT Shoulder_L
				{
					OFFSET 12.9942 -0.242716 4.98039
					CHANNELS 6 Xposition Yposition Zposition Zrotation Xrotation Yrotation 
					JOINT UpperArm_L
					{
						OFFSET 5.34809 0.0 0.0
						CHANNELS 6 Xposition Yposition Zposition Zrotation Xrotation Yrotation 
						JOINT LowerArm_L
						{
							OFFSET 24.3286 1.87007e-05 0.0
							CHANNELS 6 Xposition Yposition Zposition Zrotation Xrotation Yrotation 
							JOINT Hand_L
							{
								OFFSET 22.2916 0.0 0.0
								CHANNELS 6 Xposition Yposition Zposition Zrotation Xrotation Yrotation 
								End Site
								{
									OFFSET 0.0 0.0 0.0
								}
							}
						}
					}
				}
				JOINT Shoulder_R
				{
					OFFSET 12.9945 -0.242716 -4.98039
					CHANNELS 6 Xposition Yposition Zposition Zrotation Xrotation Yrotation 
					JOINT UpperArm_R
					{
						OFFSET -5.34813 0.0 0.0
						CHANNELS 6 Xposition Yposition Zposition Zrotation Xrotation Yrotation 
						JOINT LowerArm_R
						{
							OFFSET -24.3289 0.000322201 0.0
							CHANNELS 6 Xposition Yposition Zposition Zrotation Xrotation Yrotation 
							JOINT Hand_R
							{
								OFFSET -22.2915 -0.000108084 0.0
								CHANNELS 6 Xposition Yposition Zposition Zrotation Xrotation Yrotation 
								End Site
								{
									OFFSET 0.0 0.0 0.0
								}
							}
						}
					}
				}
			}
		}
		JOINT UpperLeg_L
		{
			OFFSET -2.19248 -6.46944 0.0
			CHANNELS 6 Xposition Yposition Zposition Zrotation Xrotation Yrotation 
			JOINT LowerLeg_L
			{
				OFFSET 39.0811 0.0 -1.23785e-05
				CHANNELS 6 Xposition Yposition Zposition Zrotation Xrotation Yrotation 
				JOINT Foot_L
				{
					OFFSET 40.9854 0.0 -1.26872e-05
					CHANNELS 6 Xposition Yposition Zposition Zrotation Xrotation Yrotation 
					JOINT Toes_L
					{
						OFFSET 11.7543 0.0 0.0
						CHANNELS 6 Xposition Yposition Zposition Zrotation Xrotation Yrotation 
						End Site
						{
							OFFSET 0.0 0.0 0.0
						}
					}
				}
			}
		}
		JOINT UpperLeg_R
		{
			OFFSET -2.19251 6.46944 0.0
			CHANNELS 6 Xposition Yposition Zposition Zrotation Xrotation Yrotation 
			JOINT LowerLeg_R
			{
				OFFSET -39.0811 -0.00228153 -0.0401928
				CHANNELS 6 Xposition Yposition Zposition Zrotation Xrotation Yrotation 
				JOINT Foot_R
				{
					OFFSET -40.9854 0.0 0.0
					CHANNELS 6 Xposition Yposition Zposition Zrotation Xrotation Yrotation 
					JOINT Toes_R
					{
						OFFSET -11.7543 0.0 0.0
						CHANNELS 6 Xposition Yposition Zposition Zrotation Xrotation Yrotation 
						End Site
						{
							OFFSET 0.0 0.0 0.0
						}
					}
				}
			}
		}
	}
}
MOTION
Frames:	4
Frame Time:	0.0333333
0.000000 0.000000 0.000000 0.000000 0.000000 -0.000000 -0.559913 90.503900 -6.187260 88.004300 -3.442200 11.553000 15.735700 0.000005 -0.000001 87.463500 74.823400 -88.922000 8.984550 -0.406207 -0.000000 22.544800 -1.492510 -2.633370 16.377300 -0.000001 -0.000001 12.219900 -3.628680 3.661220 6.456720 -0.000001 -0.000000 -8.643060 -1.937590 -2.351900 12.994200 -0.242716 4.980390 -91.131500 5.093210 -77.457200 5.348090 -0.000007 -0.000001 -45.241900 37.894400 -37.349700 24.328600 0.000019 0.000005 7.277250 18.026500 -22.423700 22.291600 -0.000001 0.000005 12.066900 5.256950 1.248410 12.994500 -0.242716 -4.980390 89.526000 2.020340 -76.794500 -5.348130 -0.000001 -0.000004 -68.503900 -14.677700 -76.337000 -24.328900 0.000322 -0.000009 17.969800 -7.418890 -111.708000 -22.291500 -0.000108 -0.000004 27.301000 5.275260 0.755470 -2.192480 -6.469440 -0.000000 -173.776000 -9.161660 -4.575770 39.081100 -0.000007 -0.000012 -0.173432 0.252034 34.533300 40.985400 -0.000006 -0.000013 0.053091 4.328860 -68.290700 11.754300 -0.000000 0.000003 -0.000062 -0.000678 -16.603800 -2.192510 6.469440 -0.000001 176.751000 19.473100 177.187000 -39.081100 -0.002282 -0.040193 -0.103097 0.166145 32.633900 -40.985400 0.000008 0.000006 5.078930 12.813000 -68.415500 -11.754300 -0.000006 -0.000006 -0.003869 -0.050073 -18.609900
0.000000 0.000000 0.000000 0.000000 0.000000 -0.000000 -0.545611 90.505600 -6.222160 87.986500 -3.448520 11.463500 15.735700 0.000005 -0.000001 87.431800 74.835400 -88.896700 8.984550 -0.406207 -0.000000 22.519900 -1.508330 -2.643240 16.377300 -0.000001 -0.000001 12.206500 -3.634070 3.627600 6.456720 -0.000001 -0.000000 -8.637820 -1.930640 -2.365570 12.994200 -0.242716 4.980390 -91.136900 5.112570 -77.445300 5.348090 -0.000007 -0.000001 -45.162100 37.930000 -37.400200 24.328600 0.000019 0.000005 7.242870 18.025300 -22.328500 22.291600 -0.000001 0.000005 12.097700 5.257490 1.233980 12.994500 -0.242716 -4.980390 89.529300 2.004010 -76.778800 -5.348130 -0.000001 -0.000004 -68.547100 -14.716000 -76.463800 -24.328900 0.000322 -0.000009 18.026900 -7.427060 -111.663000 -22.291500 -0.000108 -0.000004 27.312500 5.273890 0.792548 -2.192480 -6.469440 -0.000000 -173.790000 -9.179380 -4.703610 39.081100 -0.000007 -0.000012 -0.173397 0.251864 34.546000 40.985400 -0.000006 -0.000013 0.053260 4.272020 -68.265100 11.754300 -0.000000 0.000003 -0.000065 -0.000709 -16.605000 -2.192510 6.469440 -0.000001 176.806000 19.458700 177.065000 -39.081100 -0.002282 -0.040193 -0.103817 0.167354 32.620900 -40.985400 0.000008 0.000006 5.052450 12.799000 -68.370700 -11.754300 -0.000006 -0.000006 -0.003974 -0.051167 -18.654400
0.000000 0.000000 0.000000 0.000000 0.000000 -0.000000 -0.532160 90.513800 -6.238430 87.999700 -3.440260 11.481500 15.735700 0.000005 -0.000001 87.409700 74.815900 -88.891100 8.984550 -0.406207 -0.000000 22.558100 -1.523880 -2.672940 16.377300 -0.000001 -0.000001 12.204800 -3.627080 3.653750 6.456720 -0.000001 -0.000000 -8.648200 -1.935060 -2.399970 12.994200 -0.242716 4.980390 -91.142300 5.123780 -77.414600 5.348090 -0.000007 -0.000001 -45.216500 37.881000 -37.369900 24.328600 0.000019 0.000005 7.254800 18.088100 -22.294200 22.291600 -0.000001 0.000005 12.062200 5.258660 1.202880 12.994500 -0.242716 -4.980390 89.535100 1.975070 -76.751200 -5.348130 -0.000001 -0.000004 -68.593500 -14.749300 -76.545300 -24.328900 0.000322 -0.000009 18.055500 -7.435770 -111.653000 -22.291500 -0.000108 -0.000004 27.325700 5.272020 0.843690 -2.192480 -6.469440 -0.000000 -173.811000 -9.184900 -4.670370 39.081100 -0.000007 -0.000012 -0.170616 0.248234 34.501800 40.985400 -0.000006 -0.000013 0.071345 4.301730 -68.239400 11.754300 -0.000000 0.000003 -0.000064 -0.000701 -16.604700 -2.192510 6.469440 -0.000001 176.783000 19.465400 177.086000 -39.081100 -0.002282 -0.040193 -0.101207 0.163433 32.595900 -40.985400 0.000008 0.000006 5.098440 12.797700 -68.360200 -11.754300 -0.000006 -0.000006 -0.003995 -0.051383 -18.663200
0.000000 0.000000 0.000000 0.000000 0.000000 -0.000000 -0.515268 90.504700 -6.260110 87.990700 -3.432600 11.468900 15.735700 0.000005 -0.000001 87.403600 74.815400 -88.892000 8.984550 -0.406207 -0.000000 22.558700 -1.527960 -2.686080 16.377300 -0.000001 -0.000001 12.209700 -3.636980 3.624560 6.456720 -0.000001 -0.000000 -8.546150 -1.938760 -2.382920 12.994200 -0.242716 4.980390 -91.152600 5.155790 -77.380700 5.348090 -0.000007 -0.000001 -45.175000 37.892600 -37.352700 24.328600 0.000019 0.000005 7.301230 18.165100 -22.341400 22.291600 -0.000001 0.000005 12.014900 5.258080 1.218200 12.994500 -0.242716 -4.980390 89.538300 1.959020 -76.737200 -5.348130 -0.000001 -0.000004 -68.633000 -14.750400 -76.608000 -24.328900 0.000322 -0.000009 18.013000 -7.405730 -111.623000 -22.291500 -0.000108 -0.000004 27.332600 5.275490 0.749154 -2.192480 -6.469440 -0.000000 -173.816000 -9.196830 -4.721870 39.081100 -0.000007 -0.000012 -0.171219 0.248612 34.555600 40.985400 -0.000006 -0.000013 0.091852 4.316490 -68.256500 11.754300 -0.000000 0.000003 -0.000055 -0.000611 -16.601200 -2.192510 6.469440 -0.000001 176.772000 19.474300 177.046000 -39.081100 -0.002282 -0.040193 -0.107743 0.173538 32.613400 -40.985400 0.000008 0.000006 4.924880 12.823700 -68.304900 -11.754300 -0.000006 -0.000006 -0.003941 -0.050829 -18.640700
